<?xml version="1.0" encoding="UTF-8" standalone="no" ?>
<!DOCTYPE svg PUBLIC "-//W3C//DTD SVG 1.1//EN" "http://www.w3.org/Graphics/SVG/1.1/DTD/svg11.dtd">
<svg xmlns="http://www.w3.org/2000/svg" xmlns:xlink="http://www.w3.org/1999/xlink" version="1.1" width="567.2248046875" height="137.99" xml:space="preserve">
<desc>Created with Fabric.js 1.6.0-rc.1</desc>
<defs></defs>
<g style="stroke: none; stroke-width: 1; stroke-dasharray: none; stroke-linecap: butt; stroke-linejoin: miter; stroke-miterlimit: 10; fill: none; fill-rule: nonzero; opacity: 1;" transform="translate(10 10) rotate(359.14) scale(0.25 0.23)" >
  <circle cx="256" cy="256" r="256" style="stroke: none; stroke-width: 1; stroke-dasharray: none; stroke-linecap: butt; stroke-linejoin: miter; stroke-miterlimit: 10; fill: #f03c33; fill-rule: nonzero; opacity: 1;" transform="  matrix(1 0 0 1 0 0) "/>
  <polygon points="36.44,55.76 268.94,55.76 279.32,338.9 26.24,338.9 " style="stroke: none; stroke-width: 1; stroke-dasharray: none; stroke-linecap: butt; stroke-linejoin: miter; stroke-miterlimit: 10; fill: #f2d322; fill-rule: nonzero; opacity: 1;" transform="  matrix(1 0 0 1 0 0) "/>
  <path d="M 90.01 82.357 h 4.92 c 0.547 1.822 0.547 3.462 0 5.102 h -4.009 c 0.547 43.183 16.763 70.878 37.352 83.086 c 8.017 4.737 16.763 7.106 25.509 7.106 l 0 0 c 8.746 0 17.492 -2.369 25.509 -7.106 c 20.589 -12.208 36.806 -39.903 37.352 -83.086 h -4.009 c -0.547 -1.64 -0.547 -3.462 0 -5.102 h 5.102 c 1.093 0 2.186 0.364 2.915 1.275 c 0.729 0.729 1.275 1.822 1.275 2.915 c -0.364 45.916 -17.856 75.433 -40.085 88.552 c -8.928 5.284 -18.403 7.835 -28.06 7.835 l 0 0 c -9.657 0 -19.314 -2.551 -28.06 -7.835 c -22.229 -13.119 -39.539 -42.636 -40.085 -88.552 c 0 -1.093 0.364 -2.186 1.275 -2.915 c 0.729 -0.729 1.822 -1.275 2.915 -1.275 H 90.01 z" style="stroke: none; stroke-width: 1; stroke-dasharray: none; stroke-linecap: butt; stroke-linejoin: miter; stroke-miterlimit: 10; fill: #FCD34E; fill-rule: nonzero; opacity: 1;" transform=" matrix(1 0 0 1 0 0) " stroke-linecap="round" />
  <polygon points="277.87,301.55 278.05,305.93 27.51,305.93 27.51,301.55 " style="stroke: none; stroke-width: 1; stroke-dasharray: none; stroke-linecap: butt; stroke-linejoin: miter; stroke-miterlimit: 10; fill: #FCD34E; fill-rule: nonzero; opacity: 1;" transform="  matrix(1 0 0 1 0 0) "/>
  <circle cx="87.274" cy="81.81400000000001" r="6.924" style="stroke: none; stroke-width: 1; stroke-dasharray: none; stroke-linecap: butt; stroke-linejoin: miter; stroke-miterlimit: 10; fill: #306ac7; fill-rule: nonzero; opacity: 1;" transform="  matrix(1 0 0 1 0 0) "/>
  <circle cx="218.28400000000002" cy="81.81400000000001" r="6.924" style="stroke: none; stroke-width: 1; stroke-dasharray: none; stroke-linecap: butt; stroke-linejoin: miter; stroke-miterlimit: 10; fill: #306ac7; fill-rule: nonzero; opacity: 1;" transform="  matrix(1 0 0 1 0 0) "/>
  <path d="M 88.735 79.26 h 4.92 c 0.547 1.822 0.547 3.462 0 5.102 h -4.009 c 0.547 43.183 16.763 70.878 37.352 83.086 c 8.017 4.737 16.763 7.106 25.509 7.106 l 0 0 c 8.746 0 17.492 -2.369 25.509 -7.106 c 20.589 -12.208 36.806 -39.903 37.352 -83.086 h -4.009 c -0.547 -1.64 -0.547 -3.462 0 -5.102 h 5.102 c 1.093 0 2.186 0.364 2.915 1.275 c 0.729 0.729 1.275 1.822 1.275 2.915 c -0.364 45.916 -17.856 75.433 -40.085 88.552 c -8.928 5.284 -18.403 7.835 -28.06 7.835 l 0 0 c -9.657 0 -19.314 -2.551 -28.06 -7.835 c -22.229 -13.119 -39.539 -42.636 -40.085 -88.552 c 0 -1.093 0.364 -2.186 1.275 -2.915 c 0.729 -0.729 1.822 -1.275 2.915 -1.275 H 88.735 z" style="stroke: none; stroke-width: 1; stroke-dasharray: none; stroke-linecap: butt; stroke-linejoin: miter; stroke-miterlimit: 10; fill: #FFFFFF; fill-rule: nonzero; opacity: 1;" transform=" matrix(1 0 0 1 0 0) " stroke-linecap="round" />
  <polygon points="272.76,157.97 279.32,338.9 215,338.9 221.56,157.97 " style="stroke: none; stroke-width: 1; stroke-dasharray: none; stroke-linecap: butt; stroke-linejoin: miter; stroke-miterlimit: 10; fill: #FCD34E; fill-rule: nonzero; opacity: 1;" transform="  matrix(1 0 0 1 0 0) "/>
  <polygon points="277.87,301.55 278.05,305.93 216.1,305.93 216.28,301.55 " style="stroke: none; stroke-width: 1; stroke-dasharray: none; stroke-linecap: butt; stroke-linejoin: miter; stroke-miterlimit: 10; fill: #FCD34E; fill-rule: nonzero; opacity: 1;" transform="  matrix(1 0 0 1 0 0) "/>
  <polygon points="227.03,157.97 375.53,157.97 382.09,338.9 220.47,338.9 " style="stroke: none; stroke-width: 1; stroke-dasharray: none; stroke-linecap: butt; stroke-linejoin: miter; stroke-miterlimit: 10; fill: #22ba3b; fill-rule: nonzero; opacity: 1;" transform="  matrix(1 0 0 1 0 0) "/>
  <path d="M 261.284 174.918 h 3.098 c 0.364 1.093 0.364 2.186 0 3.28 h -2.551 c 0.364 27.695 10.75 45.369 23.869 53.022 c 5.102 3.098 10.75 4.555 16.399 4.555 l 0 0 c 5.648 0 11.115 -1.458 16.399 -4.555 c 13.119 -7.835 23.505 -25.509 23.869 -53.022 h -2.551 c -0.364 -1.093 -0.364 -2.186 0 -3.28 h 3.28 c 0.729 0 1.275 0.182 1.822 0.729 c 0.547 0.547 0.729 1.093 0.729 1.822 c -0.182 29.335 -11.297 48.102 -25.509 56.484 c -5.648 3.28 -11.843 4.92 -18.038 4.92 l 0 0 c -6.195 0 -12.208 -1.64 -18.038 -5.102 c -14.212 -8.381 -25.327 -27.149 -25.509 -56.484 c 0 -0.729 0.182 -1.275 0.729 -1.822 c 0.547 -0.547 1.093 -0.729 1.822 -0.729 L 261.284 174.918 z" style="stroke: none; stroke-width: 1; stroke-dasharray: none; stroke-linecap: butt; stroke-linejoin: miter; stroke-miterlimit: 10; fill: #75BD80; fill-rule: nonzero; opacity: 1;" transform=" matrix(1 0 0 1 0 0) " stroke-linecap="round" />
  <polygon points="381.36,315.04 381.36,317.95 221.2,317.95 221.2,315.04 " style="stroke: none; stroke-width: 1; stroke-dasharray: none; stroke-linecap: butt; stroke-linejoin: miter; stroke-miterlimit: 10; fill: #75BD80; fill-rule: nonzero; opacity: 1;" transform="  matrix(1 0 0 1 0 0) "/>
  <circle cx="259.463" cy="174.553" r="4.373" style="stroke: none; stroke-width: 1; stroke-dasharray: none; stroke-linecap: butt; stroke-linejoin: miter; stroke-miterlimit: 10; fill: #306ac7; fill-rule: nonzero; opacity: 1;" transform="  matrix(1 0 0 1 0 0) "/>
  <circle cx="343.093" cy="174.553" r="4.373" style="stroke: none; stroke-width: 1; stroke-dasharray: none; stroke-linecap: butt; stroke-linejoin: miter; stroke-miterlimit: 10; fill: #306ac7; fill-rule: nonzero; opacity: 1;" transform="  matrix(1 0 0 1 0 0) "/>
  <path d="M 260.373 172.914 h 3.098 c 0.364 1.093 0.364 2.186 0 3.28 h -2.551 c 0.364 27.695 10.75 45.369 23.869 53.022 c 5.102 3.098 10.75 4.555 16.399 4.555 l 0 0 c 5.648 0 11.115 -1.458 16.399 -4.555 c 13.119 -7.835 23.505 -25.509 23.869 -53.022 h -2.551 c -0.364 -1.093 -0.364 -2.186 0 -3.28 h 3.28 c 0.729 0 1.275 0.182 1.822 0.729 c 0.547 0.547 0.729 1.093 0.729 1.822 c -0.182 29.335 -11.297 48.102 -25.509 56.484 c -5.648 3.28 -11.843 4.92 -18.038 4.92 l 0 0 c -6.195 0 -12.208 -1.64 -18.038 -4.92 c -14.212 -8.382 -25.327 -27.149 -25.509 -56.484 c 0 -0.729 0.182 -1.275 0.729 -1.822 c 0.547 -0.547 1.093 -0.729 1.822 -0.729 H 260.373 z" style="stroke: none; stroke-width: 1; stroke-dasharray: none; stroke-linecap: butt; stroke-linejoin: miter; stroke-miterlimit: 10; fill: #FFFFFF; fill-rule: nonzero; opacity: 1;" transform=" matrix(1 0 0 1 0 0) " stroke-linecap="round" />
  <path d="M 437.113 226.847 c 15.488 0 28.06 12.572 28.06 28.06 s -12.572 28.06 -28.06 28.06 c -15.488 0 -28.06 -12.572 -28.06 -28.06 S 421.626 226.847 437.113 226.847 z" style="stroke: none; stroke-width: 1; stroke-dasharray: none; stroke-linecap: butt; stroke-linejoin: miter; stroke-miterlimit: 10; fill: #f2d322; fill-rule: nonzero; opacity: 1;" transform=" matrix(1 0 0 1 0 0) " stroke-linecap="round" />
  <path d="M 437.113 234.5 c 11.297 0 20.407 9.11 20.407 20.407 c 0 11.297 -9.11 20.407 -20.407 20.407 c -11.297 0 -20.407 -9.11 -20.407 -20.407 C 416.706 243.61 425.816 234.5 437.113 234.5 z" style="stroke: none; stroke-width: 1; stroke-dasharray: none; stroke-linecap: butt; stroke-linejoin: miter; stroke-miterlimit: 10; fill: #FCD34E; fill-rule: nonzero; opacity: 1;" transform=" matrix(1 0 0 1 0 0) " stroke-linecap="round" />
  <path d="M 444.401 246.707 c 0 0 -1.64 -2.369 -4.92 -2.733 v -3.098 h -3.462 v 3.098 c -0.182 0 -0.547 0.182 -0.729 0.182 c -6.195 1.822 -4.737 6.559 -4.737 7.288 s 1.458 2.733 4.191 4.009 c 2.733 1.458 6.013 2.551 6.195 3.826 c 0.182 1.275 -0.911 3.28 -3.462 3.098 c -2.369 -0.182 -5.466 -2.551 -5.466 -2.551 l -2.369 2.915 c 0 0 1.822 2.369 6.195 2.915 v 3.098 h 3.462 v -3.098 c 4.555 -0.729 5.102 -4.191 5.102 -4.191 s 1.275 -3.826 -1.822 -6.013 c -3.098 -2.186 -7.653 -2.733 -8.382 -5.102 c -0.729 -2.186 1.64 -4.009 3.826 -3.462 c 2.186 0.729 4.009 2.186 4.009 2.186 l 2.186 -2.915 L 444.401 246.707 z" style="stroke: none; stroke-width: 1; stroke-dasharray: none; stroke-linecap: butt; stroke-linejoin: miter; stroke-miterlimit: 10; fill: #FFFFFF; fill-rule: nonzero; opacity: 1;" transform=" matrix(1 0 0 1 0 0) " stroke-linecap="round" />
  <path d="M 320.683 256.547 c 10.75 0 19.496 8.746 19.496 19.496 c 0 10.75 -8.746 19.496 -19.496 19.496 c -10.75 0 -19.496 -8.746 -19.496 -19.496 C 301.187 265.293 309.933 256.547 320.683 256.547 z" style="stroke: none; stroke-width: 1; stroke-dasharray: none; stroke-linecap: butt; stroke-linejoin: miter; stroke-miterlimit: 10; fill: #f2d322; fill-rule: nonzero; opacity: 1;" transform=" matrix(1 0 0 1 0 0) " stroke-linecap="round" />
  <path d="M 320.683 262.013 c 7.835 0 14.212 6.377 14.212 14.212 s -6.377 14.212 -14.212 14.212 c -7.835 0 -14.212 -6.377 -14.212 -14.212 S 312.848 262.013 320.683 262.013 z" style="stroke: none; stroke-width: 1; stroke-dasharray: none; stroke-linecap: butt; stroke-linejoin: miter; stroke-miterlimit: 10; fill: #FCD34E; fill-rule: nonzero; opacity: 1;" transform=" matrix(1 0 0 1 0 0) " stroke-linecap="round" />
  <path d="M 325.785 270.394 c 0 0 -1.093 -1.64 -3.462 -2.004 v -2.186 h -2.369 v 2.186 c -0.182 0 -0.364 0 -0.547 0.182 c -4.191 1.275 -3.28 4.555 -3.28 5.102 c 0 0.547 0.911 1.822 2.915 2.915 c 2.004 0.911 4.191 1.64 4.373 2.733 c 0.182 0.911 -0.729 2.186 -2.369 2.004 c -1.64 -0.182 -3.826 -1.822 -3.826 -1.822 l -1.64 2.004 c 0 0 1.275 1.64 4.373 2.004 v 2.186 h 2.369 v -2.186 c 3.098 -0.547 3.644 -2.915 3.644 -2.915 s 0.911 -2.733 -1.275 -4.191 c -2.186 -1.458 -5.284 -2.004 -5.831 -3.462 c -0.547 -1.458 1.093 -2.915 2.733 -2.369 c 1.458 0.547 2.733 1.64 2.733 1.64 l 1.458 -2.004 V 270.394 z" style="stroke: none; stroke-width: 1; stroke-dasharray: none; stroke-linecap: butt; stroke-linejoin: miter; stroke-miterlimit: 10; fill: #FFFFFF; fill-rule: nonzero; opacity: 1;" transform=" matrix(1 0 0 1 0 0) " stroke-linecap="round" />
  <path d="M 273.674 320.501 h 179.291 c 7.47 0 13.483 6.013 13.483 13.483 v 136.29 c 0 7.47 -6.013 13.483 -13.483 13.483 H 273.674 c -7.47 0 -13.483 -6.013 -13.483 -13.483 v -136.29 C 260.191 326.514 266.204 320.501 273.674 320.501 z" style="stroke: none; stroke-width: 1; stroke-dasharray: none; stroke-linecap: butt; stroke-linejoin: miter; stroke-miterlimit: 10; fill: #5D718F; fill-rule: nonzero; opacity: 1;" transform=" matrix(1 0 0 1 0 0) " stroke-linecap="round" />
  <path d="M 271.852 343.641 h 195.143 c 6.377 0 11.479 5.102 11.479 11.479 v 116.977 c 0 6.377 -5.102 11.479 -11.479 11.479 H 271.852 c -6.377 0 -11.479 -5.102 -11.479 -11.479 V 355.12 C 260.373 348.743 265.475 343.641 271.852 343.641 z" style="stroke: none; stroke-width: 1; stroke-dasharray: none; stroke-linecap: butt; stroke-linejoin: miter; stroke-miterlimit: 10; fill: #5D718F; fill-rule: nonzero; opacity: 1;" transform=" matrix(1 0 0 1 0 0) " stroke-linecap="round" />
  <path d="M 383.909 286.064 c 25.509 0 46.28 20.772 46.28 46.28 c 0 25.509 -20.772 46.28 -46.28 46.28 c -25.509 0 -46.28 -20.772 -46.28 -46.28 C 337.628 306.836 358.4 286.064 383.909 286.064 z" style="stroke: none; stroke-width: 1; stroke-dasharray: none; stroke-linecap: butt; stroke-linejoin: miter; stroke-miterlimit: 10; fill: #f2d322; fill-rule: nonzero; opacity: 1;" transform=" matrix(1 0 0 1 0 0) " stroke-linecap="round" />
  <path d="M 383.909 298.636 c 18.585 0 33.708 15.123 33.708 33.708 s -15.123 33.708 -33.708 33.708 s -33.708 -15.123 -33.708 -33.708 S 365.324 298.636 383.909 298.636 z" style="stroke: none; stroke-width: 1; stroke-dasharray: none; stroke-linecap: butt; stroke-linejoin: miter; stroke-miterlimit: 10; fill: #FCD34E; fill-rule: nonzero; opacity: 1;" transform=" matrix(1 0 0 1 0 0) " stroke-linecap="round" />
  <path d="M 395.752 318.861 c 0 0 -2.733 -3.826 -8.199 -4.555 v -4.92 h -5.831 v 5.284 c -0.364 0.182 -0.729 0.182 -1.275 0.364 c -10.204 3.098 -8.017 10.932 -7.835 12.208 c 0.182 1.275 2.186 4.555 6.924 6.742 c 4.555 2.186 10.021 4.009 10.386 6.377 c 0.364 2.186 -1.458 5.466 -5.648 4.92 c -4.009 -0.364 -8.928 -4.191 -8.928 -4.191 l -4.009 4.737 c 0 0 3.098 4.009 10.386 4.92 v 4.92 h 5.831 v -5.102 c 7.47 -1.093 8.564 -6.742 8.564 -6.742 s 2.004 -6.377 -3.098 -10.021 c -5.102 -3.644 -12.572 -4.555 -13.848 -8.199 s 2.733 -6.742 6.377 -5.648 c 3.644 1.275 6.559 3.826 6.559 3.826 l 3.462 -4.737 L 395.752 318.861 z" style="stroke: none; stroke-width: 1; stroke-dasharray: none; stroke-linecap: butt; stroke-linejoin: miter; stroke-miterlimit: 10; fill: #FFFFFF; fill-rule: nonzero; opacity: 1;" transform=" matrix(1 0 0 1 0 0) " stroke-linecap="round" />
  <path d="M 270.03 343.641 h 196.783 c 6.377 0 11.479 5.102 11.479 11.479 v 111.693 c 0 6.377 -5.102 11.479 -11.479 11.479 H 271.67 c -6.377 0 -11.479 -5.102 -11.479 -11.479 V 333.984 C 260.191 339.086 265.293 343.641 270.03 343.641 z" style="stroke: none; stroke-width: 1; stroke-dasharray: none; stroke-linecap: butt; stroke-linejoin: miter; stroke-miterlimit: 10; fill: #306ac7; fill-rule: nonzero; opacity: 1;" transform=" matrix(1 0 0 1 0 0) " stroke-linecap="round" />
  <path d="M 478.474 399.396 v 35.895 h -26.967 c -5.102 0 -9.11 -4.191 -9.11 -9.11 v -17.492 c 0 -5.102 4.191 -9.11 9.11 -9.11 h 26.967 V 399.396 z" style="stroke: none; stroke-width: 1; stroke-dasharray: none; stroke-linecap: butt; stroke-linejoin: miter; stroke-miterlimit: 10; fill: #5D718F; fill-rule: nonzero; opacity: 1;" transform=" matrix(1 0 0 1 0 0) " stroke-linecap="round" />
  <path d="M 451.507 397.574 h 28.424 c 5.102 0 9.11 4.191 9.11 9.11 v 17.492 c 0 5.102 -4.191 9.11 -9.11 9.11 h -28.424 c -5.102 0 -9.11 -4.191 -9.11 -9.11 v -17.492 C 442.397 401.583 446.588 397.574 451.507 397.574 z" style="stroke: none; stroke-width: 1; stroke-dasharray: none; stroke-linecap: butt; stroke-linejoin: miter; stroke-miterlimit: 10; fill: #8597B1; fill-rule: nonzero; opacity: 1;" transform=" matrix(1 0 0 1 0 0) " stroke-linecap="round" />
  <circle cx="460.43699999999995" cy="415.79699999999997" r="9.657" style="stroke: none; stroke-width: 1; stroke-dasharray: none; stroke-linecap: butt; stroke-linejoin: miter; stroke-miterlimit: 10; fill: #E3E6E6; fill-rule: nonzero; opacity: 1;" transform="  matrix(1 0 0 1 0 0) "/>
  <circle cx="460.068" cy="415.428" r="8.928" style="stroke: none; stroke-width: 1; stroke-dasharray: none; stroke-linecap: butt; stroke-linejoin: miter; stroke-miterlimit: 10; fill: #FFFFFF; fill-rule: nonzero; opacity: 1;" transform="  matrix(1 0 0 1 0 0) "/>
  <path d="M 429.825 201.52 c 0 0 35.895 -71.607 -57.942 -105.315 l 1.822 -14.03 l -42.454 13.119 l 34.984 42.272 l 2.186 -16.216 C 378.443 121.349 442.397 143.396 429.825 201.52 z" style="stroke: none; stroke-width: 1; stroke-dasharray: none; stroke-linecap: butt; stroke-linejoin: miter; stroke-miterlimit: 10; fill: #FFFFFF; fill-rule: nonzero; opacity: 1;" transform=" matrix(1 0 0 1 0 0) " stroke-linecap="round" />
  <path d="M 133.193 358.036 c 0 0 -23.322 76.709 74.887 94.019 l 0.547 14.212 l 39.721 -20.043 l -41.543 -35.712 l 0.547 16.399 c -9.839 1.64 -76.527 -9.293 -73.976 -68.692 L 133.193 358.036 z" style="stroke: none; stroke-width: 1; stroke-dasharray: none; stroke-linecap: butt; stroke-linejoin: miter; stroke-miterlimit: 10; fill: #FFFFFF; fill-rule: nonzero; opacity: 1;" transform=" matrix(1 0 0 1 0 0) " stroke-linecap="round" />
</g>
  <g transform="translate(253.66 52.72)">
   <text font-family="Gross" font-size="40" font-weight="normal" style="stroke: none; stroke-width: 1; stroke-dasharray: none; stroke-linecap: butt; stroke-linejoin: miter; stroke-miterlimit: 10; fill: #e81212; fill-rule: nonzero; opacity: 1;" ><tspan x="-98.26" y="8.98" style="stroke: none; stroke-width: 0; stroke-dasharray: none; stroke-linecap: butt; stroke-linejoin: miter; stroke-miterlimit: 4; fill: #e81212; fill-rule: ; opacity: 1;">S</tspan><tspan x="-68.34" y="8.98" style="stroke: none; stroke-width: 0; stroke-dasharray: none; stroke-linecap: butt; stroke-linejoin: miter; stroke-miterlimit: 4; fill: #e81212; fill-rule: ; opacity: 1;">U</tspan><tspan x="-41.86" y="8.98" style="stroke: none; stroke-width: 0; stroke-dasharray: none; stroke-linecap: butt; stroke-linejoin: miter; stroke-miterlimit: 4; fill: #e81212; fill-rule: ; opacity: 1;">R</tspan><tspan x="-16.5" y="8.98" style="stroke: none; stroke-width: 0; stroke-dasharray: none; stroke-linecap: butt; stroke-linejoin: miter; stroke-miterlimit: 4; fill: #e81212; fill-rule: ; opacity: 1;">P</tspan><tspan x="7.38" y="8.98" style="stroke: none; stroke-width: 0; stroke-dasharray: none; stroke-linecap: butt; stroke-linejoin: miter; stroke-miterlimit: 4; fill: #e81212; fill-rule: ; opacity: 1;">R</tspan><tspan x="32.74" y="8.98" style="stroke: none; stroke-width: 0; stroke-dasharray: none; stroke-linecap: butt; stroke-linejoin: miter; stroke-miterlimit: 4; fill: #e81212; fill-rule: ; opacity: 1;">I</tspan><tspan x="43.22" y="8.98" style="stroke: none; stroke-width: 0; stroke-dasharray: none; stroke-linecap: butt; stroke-linejoin: miter; stroke-miterlimit: 4; fill: #e81212; fill-rule: ; opacity: 1;">S</tspan><tspan x="73.14" y="8.98" style="stroke: none; stroke-width: 0; stroke-dasharray: none; stroke-linecap: butt; stroke-linejoin: miter; stroke-miterlimit: 4; fill: #e81212; fill-rule: ; opacity: 1;">E</tspan></text>
 </g>
  <g transform="translate(353 82.53) scale(0.87 0.88)">
   <text font-family="ADAMCG PRO" font-size="40" font-weight="normal" style="stroke: none; stroke-width: 1; stroke-dasharray: none; stroke-linecap: butt; stroke-linejoin: miter; stroke-miterlimit: 10; fill: #000000; fill-rule: nonzero; opacity: 1;" ><tspan x="-235.24" y="8.98" style="stroke: none; stroke-width: 0; stroke-dasharray: none; stroke-linecap: butt; stroke-linejoin: miter; stroke-miterlimit: 4; fill: #000000; fill-rule: ; opacity: 1;">T</tspan><tspan x="-211.88" y="8.98" style="stroke: none; stroke-width: 0; stroke-dasharray: none; stroke-linecap: butt; stroke-linejoin: miter; stroke-miterlimit: 4; fill: #000000; fill-rule: ; opacity: 1;">H</tspan><tspan x="-184.58" y="8.98" style="stroke: none; stroke-width: 0; stroke-dasharray: none; stroke-linecap: butt; stroke-linejoin: miter; stroke-miterlimit: 4; fill: #000000; fill-rule: ; opacity: 1;">E</tspan><tspan x="-161.32" y="8.98" style="stroke: none; stroke-width: 0; stroke-dasharray: none; stroke-linecap: butt; stroke-linejoin: miter; stroke-miterlimit: 4; fill: #000000; fill-rule: ; opacity: 1;"> </tspan><tspan x="-149.33" y="8.98" style="stroke: none; stroke-width: 0; stroke-dasharray: none; stroke-linecap: butt; stroke-linejoin: miter; stroke-miterlimit: 4; fill: #000000; fill-rule: ; opacity: 1;">O</tspan><tspan x="-115.38" y="8.98" style="stroke: none; stroke-width: 0; stroke-dasharray: none; stroke-linecap: butt; stroke-linejoin: miter; stroke-miterlimit: 4; fill: #000000; fill-rule: ; opacity: 1;">N</tspan><tspan x="-85.87" y="8.98" style="stroke: none; stroke-width: 0; stroke-dasharray: none; stroke-linecap: butt; stroke-linejoin: miter; stroke-miterlimit: 4; fill: #000000; fill-rule: ; opacity: 1;">L</tspan><tspan x="-65.44" y="8.98" style="stroke: none; stroke-width: 0; stroke-dasharray: none; stroke-linecap: butt; stroke-linejoin: miter; stroke-miterlimit: 4; fill: #000000; fill-rule: ; opacity: 1;">I</tspan><tspan x="-54.66" y="8.98" style="stroke: none; stroke-width: 0; stroke-dasharray: none; stroke-linecap: butt; stroke-linejoin: miter; stroke-miterlimit: 4; fill: #000000; fill-rule: ; opacity: 1;">N</tspan><tspan x="-25.15" y="8.98" style="stroke: none; stroke-width: 0; stroke-dasharray: none; stroke-linecap: butt; stroke-linejoin: miter; stroke-miterlimit: 4; fill: #000000; fill-rule: ; opacity: 1;">E</tspan><tspan x="-1.88" y="8.98" style="stroke: none; stroke-width: 0; stroke-dasharray: none; stroke-linecap: butt; stroke-linejoin: miter; stroke-miterlimit: 4; fill: #000000; fill-rule: ; opacity: 1;"> </tspan><tspan x="10.11" y="8.98" style="stroke: none; stroke-width: 0; stroke-dasharray: none; stroke-linecap: butt; stroke-linejoin: miter; stroke-miterlimit: 4; fill: #000000; fill-rule: ; opacity: 1;">G</tspan><tspan x="38.51" y="8.98" style="stroke: none; stroke-width: 0; stroke-dasharray: none; stroke-linecap: butt; stroke-linejoin: miter; stroke-miterlimit: 4; fill: #000000; fill-rule: ; opacity: 1;">I</tspan><tspan x="49.29" y="8.98" style="stroke: none; stroke-width: 0; stroke-dasharray: none; stroke-linecap: butt; stroke-linejoin: miter; stroke-miterlimit: 4; fill: #000000; fill-rule: ; opacity: 1;">F</tspan><tspan x="72.59" y="8.98" style="stroke: none; stroke-width: 0; stroke-dasharray: none; stroke-linecap: butt; stroke-linejoin: miter; stroke-miterlimit: 4; fill: #000000; fill-rule: ; opacity: 1;">T</tspan><tspan x="95.95" y="8.98" style="stroke: none; stroke-width: 0; stroke-dasharray: none; stroke-linecap: butt; stroke-linejoin: miter; stroke-miterlimit: 4; fill: #000000; fill-rule: ; opacity: 1;"> </tspan><tspan x="107.94" y="8.98" style="stroke: none; stroke-width: 0; stroke-dasharray: none; stroke-linecap: butt; stroke-linejoin: miter; stroke-miterlimit: 4; fill: #000000; fill-rule: ; opacity: 1;">S</tspan><tspan x="129.05" y="8.98" style="stroke: none; stroke-width: 0; stroke-dasharray: none; stroke-linecap: butt; stroke-linejoin: miter; stroke-miterlimit: 4; fill: #000000; fill-rule: ; opacity: 1;">T</tspan><tspan x="152.41" y="8.98" style="stroke: none; stroke-width: 0; stroke-dasharray: none; stroke-linecap: butt; stroke-linejoin: miter; stroke-miterlimit: 4; fill: #000000; fill-rule: ; opacity: 1;">O</tspan><tspan x="186.36" y="8.98" style="stroke: none; stroke-width: 0; stroke-dasharray: none; stroke-linecap: butt; stroke-linejoin: miter; stroke-miterlimit: 4; fill: #000000; fill-rule: ; opacity: 1;">R</tspan><tspan x="211.98" y="8.98" style="stroke: none; stroke-width: 0; stroke-dasharray: none; stroke-linecap: butt; stroke-linejoin: miter; stroke-miterlimit: 4; fill: #000000; fill-rule: ; opacity: 1;">E</tspan></text>
 </g>
  <g transform="translate(416.66 52.72)">
   <text font-family="Tiza" font-size="40" font-weight="normal" style="stroke: none; stroke-width: 1; stroke-dasharray: none; stroke-linecap: butt; stroke-linejoin: miter; stroke-miterlimit: 10; fill: #0f0d0d; fill-rule: nonzero; opacity: 1;" ><tspan x="-46.26" y="8.98" style="stroke: none; stroke-width: 0; stroke-dasharray: none; stroke-linecap: butt; stroke-linejoin: miter; stroke-miterlimit: 4; fill: #0f0d0d; fill-rule: ; opacity: 1;">M</tspan><tspan x="7.94" y="8.98" style="stroke: none; stroke-width: 0; stroke-dasharray: none; stroke-linecap: butt; stroke-linejoin: miter; stroke-miterlimit: 4; fill: #0f0d0d; fill-rule: ; opacity: 1;">E</tspan></text>
 </g>
</svg>